<svg width="183" height="43" viewBox="0 0 183 43" fill="none" xmlns="http://www.w3.org/2000/svg">
<path d="M164.207 41.4941V11.2627H170.135V15.7085H170.431C171.024 14.5229 172.052 13.4362 173.514 12.4482C175.016 11.4603 176.754 10.9663 178.73 10.9663H182.88V16.894H178.73C176.32 16.894 174.324 17.6646 172.743 19.2058C171.202 20.7075 170.431 22.7032 170.431 25.1928V41.4941H164.207Z" fill="black"/>
<path d="M142.014 42.0869C139.05 42.0869 136.363 41.4151 133.952 40.0714C131.581 38.7278 129.724 36.8705 128.38 34.4994C127.037 32.0888 126.365 29.3818 126.365 26.3784C126.365 23.375 127.037 20.6878 128.38 18.3167C129.724 15.9061 131.581 14.029 133.952 12.6853C136.363 11.3417 139.05 10.6699 142.014 10.6699C144.978 10.6699 147.645 11.3417 150.016 12.6853C152.427 14.029 154.304 15.9061 155.648 18.3167C156.991 20.6878 157.663 23.375 157.663 26.3784C157.663 29.3818 156.991 32.0888 155.648 34.4994C154.304 36.8705 152.427 38.7278 150.016 40.0714C147.645 41.4151 144.978 42.0869 142.014 42.0869ZM142.014 36.4555C144.82 36.4555 147.033 35.5466 148.653 33.7288C150.313 31.9109 151.143 29.4608 151.143 26.3784C151.143 23.296 150.313 20.8458 148.653 19.028C147.033 17.2102 144.82 16.3013 142.014 16.3013C139.208 16.3013 136.975 17.2102 135.316 19.028C133.695 20.8458 132.885 23.296 132.885 26.3784C132.885 29.4608 133.695 31.9109 135.316 33.7288C136.975 35.5466 139.208 36.4555 142.014 36.4555Z" fill="black"/>
<path d="M114.544 16.894V35.8628H124.028V41.4941H108.32V16.894H101.799V11.2627H108.32V3.85303H114.544V11.2627H122.25V16.894H114.544Z" fill="black"/>
<path d="M86.2067 42.0869C83.3614 42.0869 80.9113 41.6522 78.8564 40.7828C76.8409 39.8739 75.2997 38.6685 74.2327 37.1669C73.2053 35.6256 72.652 33.9066 72.573 32.0097H79.0935C79.4491 34.9736 81.8202 36.4555 86.2067 36.4555C88.5778 36.4555 90.2771 36.1196 91.3046 35.4478C92.3716 34.776 92.9051 33.9264 92.9051 32.8989C92.9051 31.7924 92.3321 31.002 91.186 30.5278C90.04 30.0141 88.2222 29.4806 85.7325 28.9273C83.2034 28.3741 81.1287 27.8208 79.5084 27.2675C77.9277 26.6748 76.5445 25.7461 75.359 24.4815C74.213 23.2169 73.64 21.5177 73.64 19.3837C73.64 17.8425 74.1142 16.4198 75.0626 15.1157C76.0111 13.7721 77.3942 12.7051 79.212 11.9147C81.0694 11.0849 83.2824 10.6699 85.8511 10.6699C88.6569 10.6699 91.028 11.1639 92.9643 12.1518C94.9403 13.1003 96.4024 14.3056 97.3509 15.7678C98.3388 17.2299 98.8328 18.6921 98.8328 20.1543H92.3123C92.1542 18.9292 91.5812 17.9808 90.5933 17.309C89.6448 16.6372 88.0443 16.3013 85.7918 16.3013C83.7764 16.3013 82.334 16.6174 81.4646 17.2497C80.5952 17.8425 80.1605 18.6328 80.1605 19.6208C80.1605 20.7273 80.7335 21.5374 81.8795 22.0511C83.0255 22.5254 84.8434 22.9996 87.333 23.4738C89.8622 23.9875 91.9171 24.5408 93.4978 25.1336C95.1181 25.6868 96.5012 26.5957 97.6473 27.8603C98.8328 29.0854 99.4256 30.7649 99.4256 32.8989C99.4256 34.5982 98.9316 36.1394 97.9436 37.5225C96.9557 38.9057 95.4738 40.0122 93.4978 40.842C91.5219 41.6719 89.0916 42.0869 86.2067 42.0869Z" fill="black"/>
<path d="M68.4013 28.4531H43.742C44.1372 30.9032 45.1449 32.8594 46.7651 34.3215C48.4249 35.7442 50.4601 36.4555 52.8707 36.4555C56.783 36.4555 59.5493 34.8748 61.1695 31.7133H67.69C67.1368 33.4917 66.2081 35.1712 64.904 36.7519C63.5999 38.3326 61.9204 39.617 59.8654 40.6049C57.85 41.5929 55.5184 42.0869 52.8707 42.0869C49.9463 42.0869 47.2789 41.3953 44.8683 40.0122C42.4576 38.629 40.541 36.7519 39.1184 34.3808C37.7352 31.9702 37.0437 29.3027 37.0437 26.3784C37.0437 23.454 37.7352 20.8063 39.1184 18.4352C40.541 16.0246 42.4576 14.1278 44.8683 12.7446C47.2789 11.3615 49.9463 10.6699 52.8707 10.6699C55.7555 10.6699 58.3637 11.3417 60.6953 12.6853C63.0664 14.029 64.9435 15.9456 66.3266 18.4352C67.7098 20.8854 68.4013 23.7307 68.4013 26.9712V28.4531ZM52.8707 16.3013C50.6182 16.3013 48.6818 16.9533 47.0615 18.2574C45.4808 19.522 44.4336 21.241 43.9198 23.4145H61.8808C61.3671 21.3201 60.3199 19.6208 58.7391 18.3167C57.1584 16.9731 55.2023 16.3013 52.8707 16.3013Z" fill="white"/>
<path d="M25.4892 19.6801C27.6232 20.2728 29.3423 21.4584 30.6464 23.2367C31.9505 24.9755 32.6025 27.1095 32.6025 29.6386C32.6025 32.0097 31.99 34.0844 30.7649 35.8628C29.5794 37.6411 27.8603 39.0242 25.6078 40.0122C23.3948 41.0001 20.7866 41.4941 17.7832 41.4941H0V0H18.0796C20.6878 0 22.9798 0.45446 24.9557 1.36338C26.9316 2.2723 28.4531 3.53688 29.5201 5.15712C30.5871 6.73785 31.1206 8.57545 31.1206 10.6699C31.1206 12.7644 30.6068 14.5625 29.5794 16.0641C28.5914 17.5263 27.228 18.6328 25.4892 19.3837V19.6801ZM6.81689 6.22412V17.0719H17.7832C19.7591 17.0719 21.2805 16.5779 22.3475 15.5899C23.454 14.602 24.0073 13.2781 24.0073 11.6183C24.0073 9.95858 23.454 8.65448 22.3475 7.70605C21.2805 6.71809 19.7591 6.22412 17.7832 6.22412H6.81689ZM17.7832 35.27C20.2333 35.27 22.1302 34.7365 23.4738 33.6695C24.8174 32.6025 25.4892 31.0811 25.4892 29.1051C25.4892 27.0897 24.8174 25.5683 23.4738 24.5408C22.1697 23.5133 20.2728 22.9996 17.7832 22.9996H6.81689V35.27H17.7832Z" fill="white"/>
</svg>
