<svg width="32" height="32" viewBox="0 0 32 32" fill="none" xmlns="http://www.w3.org/2000/svg">
<g id="Group 40">
<path id="Vector" d="M0 16C0 24.8366 7.16344 32 16 32C24.8366 32 32 24.8366 32 16C32 7.16344 24.8366 0 16 0C7.16344 0 0 7.16344 0 16Z" fill="#E8DEFF"/>
<path id="Vector_2" d="M25.8501 19.9283C24.7281 22.7403 22.4421 24.9663 19.5821 25.9923C19.4501 26.0403 19.3321 25.8963 19.4001 25.7723C19.9541 24.7803 20.4001 23.5543 20.7301 22.2003C20.7561 22.0923 20.6661 21.9923 20.5561 22.0123C20.0781 22.0943 19.5841 22.1643 19.0761 22.2203C19.0161 22.2263 18.9641 22.2723 18.9461 22.3303C18.2101 24.9603 17.0781 26.6083 16.0201 26.6083C14.9061 26.6083 13.7121 24.7843 12.9841 21.9123C12.9581 21.8083 13.0421 21.7083 13.1461 21.7203C14.0641 21.8183 15.0221 21.8763 16.0201 21.8763C16.0701 21.8763 16.1181 21.8723 16.1681 21.8723C16.2061 21.8723 16.2381 21.8763 16.2761 21.8763H16.3201C16.5541 21.8763 16.8821 21.8743 17.2601 21.8483C17.8981 21.8203 18.5121 21.7663 19.1121 21.6963C19.1121 21.6963 19.1821 21.6883 19.2201 21.6843C21.8221 21.3743 24.0361 20.6903 25.6281 19.7443C25.7541 19.6703 25.9021 19.7923 25.8501 19.9283ZM12.4601 25.9903C9.60408 24.9663 7.31808 22.7443 6.19608 19.9343C6.14208 19.7983 6.29208 19.6723 6.41808 19.7483C7.47808 20.3743 8.81008 20.8863 10.3481 21.2503C10.4561 21.2763 10.5561 21.1843 10.5361 21.0743C10.4461 20.5863 10.3701 20.0863 10.3081 19.5803C10.3001 19.5203 10.2561 19.4703 10.1981 19.4543C7.24608 18.6463 5.43408 17.2903 5.43408 16.0223C5.43408 14.7543 7.24608 13.3983 10.1981 12.5903C10.2581 12.5743 10.3021 12.5243 10.3101 12.4623C10.3721 11.9543 10.4501 11.4543 10.5381 10.9663C10.5581 10.8583 10.4581 10.7663 10.3501 10.7923C8.81208 11.1563 7.47808 11.6703 6.41808 12.2963C6.29208 12.3703 6.14008 12.2463 6.19408 12.1103C7.31608 9.30028 9.60208 7.07828 12.4581 6.05428C12.5901 6.00628 12.7081 6.15028 12.6381 6.27428C11.9781 7.45228 11.4721 8.95828 11.1301 10.6183C11.1301 10.6183 11.1301 10.6183 11.1301 10.6203C11.0121 11.1963 10.9141 11.7943 10.8361 12.4003C10.8361 12.4103 10.8321 12.4263 10.8321 12.4263C10.6801 13.6043 10.5981 14.8203 10.5981 16.0243C10.5981 16.6443 10.6781 18.2283 10.7001 18.4003C10.9381 21.2143 11.5941 23.9063 12.6381 25.7723C12.7061 25.8943 12.5901 26.0403 12.4561 25.9923M19.6681 18.6003C19.6501 19.2463 19.2601 20.0043 16.7321 20.1543C16.6261 20.1603 16.5121 20.1663 16.3981 20.1703C16.3161 20.1703 16.2381 20.1763 16.1561 20.1763C16.1341 20.1763 16.1101 20.1763 16.0881 20.1763C15.8281 20.1763 15.5781 20.1683 15.3241 20.1603C14.5181 20.1043 13.7001 19.9183 13.1481 19.4283C12.7381 19.0643 12.5141 18.5463 12.4521 17.8623C12.4161 17.3523 12.3561 16.8703 12.3861 16.2943C12.3921 16.1823 12.4981 16.1063 12.6021 16.1523C13.4801 16.5343 16.6161 16.9523 16.6161 16.9523C19.0741 17.3503 19.6961 17.6283 19.6701 18.6003M15.3161 11.8883C15.4221 11.8823 15.5361 11.8763 15.6501 11.8723C15.7321 11.8723 15.8101 11.8663 15.8921 11.8663C15.9141 11.8663 15.9381 11.8663 15.9601 11.8663C16.2201 11.8663 16.4701 11.8743 16.7241 11.8823C17.5301 11.9383 18.3481 12.1243 18.9001 12.6143C19.3101 12.9783 19.5341 13.4963 19.5961 14.1803C19.6321 14.6903 19.6921 15.1723 19.6621 15.7483C19.6561 15.8603 19.5501 15.9363 19.4461 15.8903C18.5681 15.5083 15.4321 15.0903 15.4321 15.0903C12.9741 14.6923 12.3521 14.4143 12.3781 13.4423C12.3961 12.7963 12.7861 12.0383 15.3141 11.8883M12.9821 10.1283C13.7101 7.25828 14.9041 5.43628 16.0181 5.43628C17.1321 5.43628 18.2101 7.08428 18.9441 9.71228C18.9601 9.77228 19.0121 9.81628 19.0741 9.82228C19.5821 9.87828 20.0761 9.94628 20.5541 10.0283C20.6621 10.0463 20.7521 9.94628 20.7261 9.84028C20.3961 8.48828 19.9501 7.26428 19.3961 6.27228C19.3281 6.15028 19.4461 6.00628 19.5781 6.05228C22.4381 7.07828 24.7241 9.30228 25.8461 12.1163C25.9001 12.2503 25.7501 12.3743 25.6261 12.3003C24.3901 11.5643 22.7841 10.9843 20.9061 10.6163C20.8541 10.6063 20.7981 10.5983 20.7441 10.5883C20.4741 10.5383 20.1981 10.4903 19.9181 10.4503C19.7421 10.4243 19.5621 10.4023 19.3841 10.3783C19.2921 10.3663 19.1081 10.3443 19.1081 10.3463C18.3501 10.2583 17.5641 10.2043 16.7481 10.1843C16.5161 10.1723 16.2921 10.1663 16.0721 10.1683C16.0541 10.1683 16.0361 10.1683 16.0181 10.1683C15.9941 10.1683 15.9721 10.1683 15.9501 10.1683C15.8841 10.1683 15.8201 10.1703 15.7581 10.1723C14.8541 10.1803 13.9841 10.2323 13.1501 10.3223C13.0421 10.3343 12.9581 10.2323 12.9841 10.1263M21.3741 14.2103H21.3841C21.3801 14.1523 21.3661 14.1043 21.3621 14.0483C21.3281 13.5763 21.2841 13.1063 21.2281 12.6423C21.2161 12.5363 21.3161 12.4483 21.4201 12.4743C24.6241 13.2643 26.6061 14.6923 26.6061 16.0203C26.6061 17.3483 24.6241 18.7763 21.4201 19.5663C21.3161 19.5923 21.2161 19.5063 21.2281 19.3983C21.3641 18.2883 21.4401 17.1483 21.4401 16.0203C21.4401 15.4183 21.4141 14.8123 21.3741 14.2103ZM16.0181 3.73828C9.24608 3.73828 3.73608 9.24828 3.73608 16.0203C3.73608 22.7923 9.24608 28.3023 16.0181 28.3023C22.7901 28.3023 28.3001 22.7923 28.3001 16.0203C28.3001 9.24828 22.7901 3.73828 16.0181 3.73828Z" fill="#171412"/>
</g>
</svg>
