<svg width="123" height="40" viewBox="0 0 123 40" fill="none" xmlns="http://www.w3.org/2000/svg">
<rect width="122.618" height="40" rx="20" fill="white"/>
<path d="M22 23.6L27.6 20L22 16.4V23.6ZM24 28C22.8933 28 21.8533 27.79 20.88 27.37C19.9067 26.95 19.06 26.38 18.34 25.66C17.62 24.94 17.05 24.0933 16.63 23.12C16.21 22.1467 16 21.1067 16 20C16 18.8933 16.21 17.8533 16.63 16.88C17.05 15.9067 17.62 15.06 18.34 14.34C19.06 13.62 19.9067 13.05 20.88 12.63C21.8533 12.21 22.8933 12 24 12C25.1067 12 26.1467 12.21 27.12 12.63C28.0933 13.05 28.94 13.62 29.66 14.34C30.38 15.06 30.95 15.9067 31.37 16.88C31.79 17.8533 32 18.8933 32 20C32 21.1067 31.79 22.1467 31.37 23.12C30.95 24.0933 30.38 24.94 29.66 25.66C28.94 26.38 28.0933 26.95 27.12 27.37C26.1467 27.79 25.1067 28 24 28ZM24 26.4C25.7867 26.4 27.3 25.78 28.54 24.54C29.78 23.3 30.4 21.7867 30.4 20C30.4 18.2133 29.78 16.7 28.54 15.46C27.3 14.22 25.7867 13.6 24 13.6C22.2133 13.6 20.7 14.22 19.46 15.46C18.22 16.7 17.6 18.2133 17.6 20C17.6 21.7867 18.22 23.3 19.46 24.54C20.7 25.78 22.2133 26.4 24 26.4Z" fill="#075547"/>
<path d="M47.85 24C47.751 23.989 47.542 24.011 47.399 24C47.366 24 47.333 23.978 47.311 23.945C47.124 23.56 46.937 23.153 46.805 22.779C46.662 22.372 45.628 20.117 45.331 19.347C45.298 19.27 45.276 19.193 45.232 19.116C44.957 18.478 44.671 17.851 44.396 17.213C44.308 17.026 44.198 16.685 44.132 16.487C44.088 16.388 44.143 16.322 44.242 16.311C44.319 16.311 44.396 16.311 44.462 16.311C44.781 16.311 45.144 16.322 45.452 16.322C45.804 16.322 45.771 16.333 45.892 16.63C46.035 17.026 46.222 17.587 46.387 17.983C46.882 19.182 47.377 20.381 47.96 21.547C48.004 21.624 48.125 22.064 48.125 22.064C48.125 22.064 48.774 20.183 48.818 20.073C49.06 19.479 49.302 18.951 49.533 18.357C49.709 17.895 49.863 17.433 50.028 16.971C50.061 16.861 50.171 16.586 50.204 16.476C50.237 16.344 50.325 16.322 50.446 16.311C50.82 16.3 51.227 16.333 51.601 16.311C51.623 16.311 51.755 16.311 51.777 16.311C51.953 16.311 51.865 16.498 51.81 16.663C51.7 16.949 51.579 17.235 51.469 17.521C51.304 17.983 51.139 18.445 50.963 18.907C50.831 19.248 50.677 19.589 50.534 19.93C50.424 20.216 50.292 20.502 50.182 20.788C49.94 21.415 49.225 23.142 49.104 23.384C49.038 23.527 48.961 23.67 48.906 23.813C48.851 23.945 48.807 23.989 48.675 24C48.631 24 48.587 24 48.543 24C48.268 24 48.125 24.011 47.85 24ZM55.7092 16.322C55.7642 16.322 55.9072 16.322 55.9622 16.322C56.0282 16.322 56.0722 16.41 56.0722 16.443C56.0832 16.762 56.1162 17.136 56.0942 17.433C56.0832 17.642 56.0832 17.862 56.0942 18.071C56.0942 18.225 56.1162 18.39 56.0942 18.544C56.0502 18.94 56.0612 19.336 56.0612 19.732C56.0612 20.326 56.0282 20.854 56.0392 21.448C56.0392 21.811 56.0722 22.174 56.0832 22.537C56.0832 22.911 56.0832 23.296 56.0722 23.681C56.0722 23.714 56.0722 23.747 56.0722 23.78C56.0502 23.89 56.0722 24.011 55.9512 24C55.6212 23.989 55.0162 24 54.6752 24C54.6422 24 54.6092 24 54.5762 24C54.4772 23.989 54.4222 23.934 54.4222 23.835C54.4112 23.802 54.4222 23.769 54.4222 23.736C54.4112 23.054 54.4442 19.49 54.4442 18.434C54.4442 17.917 54.4332 17.4 54.4332 16.872C54.4332 16.784 54.4332 16.685 54.4332 16.586C54.4442 16.432 54.5102 16.355 54.6642 16.333C54.7082 16.322 54.7632 16.322 54.8182 16.322C55.0712 16.322 55.4452 16.322 55.7092 16.322ZM60.1211 23.967C59.8461 23.989 59.5711 24.011 59.2961 23.912C59.2851 23.857 59.2631 23.791 59.2631 23.736C59.2631 23.593 59.2741 23.45 59.2741 23.318C59.2851 23.153 59.2961 22.999 59.2851 22.834C59.2411 22.064 59.2521 21.184 59.2521 20.403C59.2521 20.073 59.2411 19.743 59.2521 19.413C59.2631 18.984 59.2741 18.544 59.2961 18.104C59.3071 17.653 59.3071 17.191 59.2521 16.74C59.2081 16.344 59.3181 16.3 59.6481 16.3C60.3191 16.289 61.0121 16.311 61.6831 16.3C61.8371 16.3 62.0351 16.311 62.1781 16.3C62.7831 16.3 62.8601 16.3 63.4761 16.311C63.7511 16.322 64.4001 16.399 64.6531 16.52C65.0931 16.74 65.4891 17.026 65.8301 17.389C65.8741 17.433 65.9181 17.488 65.9511 17.543C66.1381 17.851 66.3361 18.148 66.4791 18.489C66.6771 18.94 66.7761 19.413 66.7981 19.908C66.8091 20.007 66.8091 20.117 66.8091 20.227C66.8421 20.755 66.7211 21.261 66.5781 21.767C66.5121 22.02 66.3801 22.262 66.2151 22.471C66.0721 22.647 65.9291 22.812 65.7751 22.977C65.5991 23.186 65.3901 23.439 65.1591 23.571C64.8731 23.714 64.2901 23.956 63.9821 23.989C63.5311 24.022 63.3881 24 62.9481 23.989C62.5081 23.978 62.0681 23.978 61.6391 23.989C61.3971 23.989 61.1551 23.978 60.9241 23.989C60.6601 24 60.3961 23.956 60.1211 23.967ZM61.3201 17.774C61.1551 17.774 60.9901 17.796 60.8031 17.84C60.8031 17.939 60.7921 18.027 60.7921 18.126C60.7921 18.654 60.8031 19.127 60.7811 19.655C60.7591 20.48 60.7701 21.459 60.7811 22.273C60.7811 22.328 60.7921 22.394 60.8031 22.46C60.8581 22.46 60.9021 22.471 60.9461 22.471C61.4191 22.471 61.8811 22.526 62.3541 22.526C62.5081 22.526 62.6731 22.515 62.8271 22.504C63.0361 22.493 63.2561 22.471 63.4651 22.46C63.9601 22.416 64.3121 22.317 64.6641 21.921C65.1371 21.371 65.3241 20.744 65.2911 20.029C65.2691 19.512 65.0711 18.984 64.8731 18.632C64.6971 18.324 64.4331 18.181 64.1471 17.994C64.1031 17.972 64.0481 17.961 63.9931 17.95C63.7511 17.906 63.5091 17.862 63.2671 17.829C62.6181 17.752 61.9691 17.774 61.3201 17.774ZM71.483 20.755C71.406 20.755 71.318 20.766 71.241 20.777C71.186 21.063 71.219 22.009 71.296 22.394C71.318 22.405 71.34 22.416 71.351 22.416C71.989 22.438 72.605 22.482 73.243 22.471C73.793 22.46 74.343 22.471 74.904 22.471C75.278 22.471 75.641 22.482 76.015 22.427C76.125 22.416 76.18 22.46 76.191 22.559C76.202 22.856 76.213 23.153 76.224 23.45C76.235 23.505 76.224 23.582 76.213 23.637C76.191 23.835 76.136 24 75.949 24C75.674 24 70.977 23.989 70.548 24C70.295 24.011 70.042 24 69.822 24C69.712 23.923 69.723 23.846 69.723 23.78C69.712 23.461 69.723 23.142 69.712 22.823C69.701 22.108 69.668 21.338 69.646 20.623C69.635 20.381 69.646 20.139 69.646 19.897C69.646 19.853 69.657 19.809 69.657 19.765C69.657 19.127 69.657 18.489 69.657 17.851C69.646 17.433 69.624 17.015 69.624 16.608C69.613 16.399 69.712 16.322 69.91 16.311C70.251 16.3 70.592 16.311 70.933 16.311C71.747 16.311 74.607 16.322 75.234 16.333C75.41 16.333 75.52 16.311 75.696 16.311C75.751 16.311 75.85 16.311 75.927 16.311C75.982 16.311 76.015 16.344 76.026 16.399C76.037 16.564 76.015 17.125 76.037 17.224C76.07 17.411 76.037 17.521 75.993 17.686C75.894 17.763 75.795 17.741 75.696 17.741C75.344 17.741 74.992 17.73 74.651 17.741C73.793 17.763 72.946 17.73 72.088 17.752C71.835 17.752 71.582 17.763 71.329 17.763C71.307 17.796 71.274 17.829 71.274 17.851C71.274 18.324 71.274 18.786 71.274 19.237C71.329 19.314 71.406 19.303 71.461 19.303C72 19.292 74.398 19.325 75.069 19.292C75.113 19.281 75.157 19.292 75.201 19.303C75.278 19.325 75.333 19.369 75.344 19.446C75.355 19.479 75.355 19.512 75.355 19.545C75.355 19.842 75.355 20.084 75.355 20.37C75.355 20.414 75.355 20.447 75.344 20.48C75.322 20.678 75.267 20.733 75.102 20.744C74.596 20.744 74.101 20.744 73.595 20.755C72.891 20.755 72.187 20.755 71.483 20.755ZM85.6562 17.598C86.2062 18.368 86.5692 19.226 86.5912 20.139C86.5912 20.414 86.5692 20.689 86.5142 20.975C86.4152 21.437 86.1622 21.998 85.8652 22.383C85.0292 23.461 83.9512 24.165 82.4882 24.132C81.7512 24.121 81.1792 23.923 80.5412 23.604C80.1452 23.417 79.7492 23.098 79.4632 22.779C79.3972 22.713 79.3202 22.636 79.2652 22.559C78.7262 21.756 78.4292 20.843 78.5172 19.875C78.6382 18.5 79.4742 17.224 80.7502 16.597C80.9262 16.52 81.0912 16.443 81.2672 16.377C81.4102 16.333 81.5532 16.311 81.6852 16.267C82.0372 16.146 82.4112 16.168 82.7742 16.19C83.0712 16.212 83.3682 16.245 83.6542 16.311C84.4902 16.498 85.1612 16.916 85.6562 17.598ZM80.8932 22.042C81.3772 22.427 81.9162 22.724 82.5652 22.68C83.2142 22.636 83.8192 22.482 84.2812 22.009C84.7652 21.525 85.1612 20.788 85.0952 20.106C85.0732 19.875 85.0292 19.644 84.9632 19.424C84.6442 18.357 83.4012 17.422 82.2132 17.664C81.8062 17.752 81.4212 17.862 81.0802 18.104C79.7932 19.017 79.6392 21.041 80.8932 22.042Z" fill="#075547"/>
</svg>
