<?xml version="1.0" encoding="UTF-8"?>
<svg id="Laag_2" data-name="Laag 2" xmlns="http://www.w3.org/2000/svg" viewBox="0 0 965.86 988.76">
  <defs>
    <style>
      .cls-1 {
        fill: #474747;
      }

      .cls-1, .cls-2 {
        stroke-width: 0px;
      }

      .cls-2 {
        fill: #e63446;
      }
    </style>
  </defs>
  <g id="Laag_1-2" data-name="Laag 1">
    <g>
      <path class="cls-2" d="M106,0c250.38,0,500.76,0,751.13,0,.93.3,1.84.72,2.79.88,13.92,2.45,27.17,7.04,39.73,13.35,27.52,13.82,46.27,35.69,57.64,64.13,7.38,18.47,8.55,37.87,8.55,57.42,0,154.18,0,308.35-.12,462.53,0,9.13-.56,18.31-1.63,27.37-6.38,54.08-50.02,98.59-104.08,104.46-21.78,2.36-43.93,1.33-65.91,1.75-8.27.16-16.55.03-25.12.03,1.14-2.41,2.47-4.37,3.03-6.52,5.21-20.21,5.18-40.58.67-60.85-1.94-8.71-4.59-10.12-13.46-10.1-23.67.06-47.34.14-71.01.18-20.17.03-40.34-.04-60.51.08-3.65.02-5.34-.72-5.22-4.97.32-10.79.09-21.6.1-32.4.02-32.17.09-64.34.05-96.51,0-3.45.25-5.42,4.76-5.4,36.67.23,73.34.2,110.01.19,8.73,0,10.65-1.43,12.98-9.99,3.74-13.73,2.92-27.77,2.11-41.73-.29-5.07-1.35-10.15-2.56-15.1-1.62-6.64-4.58-8.8-11.37-8.8-28.67.02-57.33.12-86,.18-9.77.02-19.54,0-29.61,0v-120.41c2.33,0,4.29,0,6.25,0,43.17-.02,86.34,0,129.52-.08,8.08-.01,9.95-1.55,12.27-9.35,3.81-12.84,3.48-26.05,2.93-39.19-.3-7.1-1.37-14.28-3.09-21.18-1.84-7.36-4.26-8.58-11.94-8.54-22.84.1-45.67.23-68.51.28-40.84.08-81.68,0-122.51.23-13.09.08-21.25,7.14-23.36,20.03-1.09,6.65-1.31,13.5-1.31,20.26.02,140.51.05,281.02.46,421.52.02,6.75,2.94,13.76,5.72,20.12,1.41,3.22,5.52,5.26,8.51,7.92-.55.1-1.01.26-1.47.26-64.01,0-128.01,0-192.02-.12-4.72,0-9.43-1.13-14.16-1.53-.84-.07-1.76.84-2.64,1.3.2.43.4.87.6,1.3,2.01-.53,4-1.19,6.04-1.58,20.18-3.82,40.01-8.64,58.3-18.54,18.28-9.9,33.47-23.41,44.25-40.92,13.56-22.02,20.69-46.48,22.08-72.43,1.45-27.13-1.12-53.65-12.96-78.58-9.21-19.4-22.71-34.93-42.06-44.77-6.74-3.43-13.89-6.04-21.32-9.22,2.6-1.31,5.36-2.37,7.77-3.96,21.87-14.41,34.89-35.38,41.18-60.06,3.35-13.16,4.3-27.28,3.99-40.91-.31-13.78-2.3-27.8-5.71-41.17-7.37-28.9-24.71-50.66-51.64-63.94-21.1-10.41-43.94-14.41-67.25-14.79-34.99-.58-70-.41-105-.51-3.49,0-7.04.03-10.47.58-8.27,1.32-14.06,5.79-17.3,13.76-3.01,7.42-2.81,15.09-2.8,22.8.07,124.51.15,249.01.23,373.52.01,16.83-.12,33.67.16,50.5.2,11.9,2.69,22.92,15.29,28.79-.96.2-1.44.39-1.91.38-32.49-.28-65.01.01-97.48-1.07-22.9-.76-43.61-9.41-61.76-23.24C16.23,682.03.16,647.45.12,605.51-.04,453.17,0,300.83.03,148.49c0-12.14-.09-24.32.92-36.4C5.37,59.29,41.61,17.01,93.1,3.88,97.45,2.77,101.71,1.3,106,0Z"/>
      <path class="cls-1" d="M617.54,863.99c-.07,24.96-2.23,50.89-12.52,75.55-10.35,24.81-28.07,41.23-54.14,48.37-.16.04-.32.12-.48.13-26.42,1.95-51.91.48-71.41-20.93-11.33-12.45-17.13-27.79-20.35-43.91-7.38-36.88-7.84-73.83,1.87-110.42,4.81-18.12,13.03-34.57,27.51-47.21,15.72-13.72,34.3-18.61,54.72-17.23,36.11,2.44,57.61,21.17,68.2,58.89,5.09,18.14,6.25,36.72,6.61,56.76ZM580.05,867.73c0-5.83.34-11.68-.07-17.48-.96-13.65-2.92-27.12-8.32-39.89-12.17-28.77-49.88-29.88-63.35-10.93-4.19,5.89-8.73,12.08-10.79,18.83-10.03,32.97-9.17,66.33-1.3,99.61,1.97,8.31,5.76,15.98,12.09,22.06,16.28,15.64,43.75,12.87,57.43-6.03,2.99-4.12,5.38-8.84,7.22-13.6,6.52-16.92,7.63-34.68,7.09-52.59Z"/>
      <path class="cls-1" d="M734.07,876.67c18.8,14.61,22.03,36.98,29.08,57.37,4.18,12.11,7.73,24.44,11.26,36.76,3.4,11.86,1.22,14.62-11.25,14.88-5.16.11-10.32-.04-15.48-.2-5.33-.17-8.31-2.88-9.88-8.13-6.4-21.36-12.83-42.72-19.9-63.87-2.06-6.16-5.56-12.18-9.68-17.22-6.5-7.96-16.02-6.61-25.45-6.07-.12,2.22-.34,4.34-.34,6.46-.04,26.16-.03,52.32-.1,78.48-.02,6.5-1.25,8.79-7.62,9.55-7,.84-14.21.51-21.28-.03-4.74-.36-6.26-3.9-6.25-8.59.11-27.99.02-55.98.01-83.97-.01-39.99-.02-79.98-.03-119.96,0-13.24.27-21.05,19.81-19.99,16.12.87,32.38-.43,48.43.9,29.39,2.44,46.56,19.54,50.51,48.78,1.91,14.17,1.59,28.29-3.09,41.99-4.78,13.98-13.38,24.79-26.88,31.36-.57.28-1.02.8-1.89,1.51ZM682.68,853.78c8.35,0,16.29.92,23.87-.32,5.23-.86,10.93-3.72,14.73-7.41,11.25-10.93,10.15-24.86,7.21-38.74-1.61-7.61-6.02-13.18-13.51-15.9-10.43-3.79-21.22-3.36-32.31-3.13v65.51Z"/>
      <path class="cls-2" d="M273.51,655.82c0-3.58,0-6.89,0-10.2.01-41.31.08-82.63-.05-123.94-.01-4.19,1.17-5.34,5.36-5.24,17.65.43,35.32.2,52.96.79,22.12.74,40.85,8.49,53.78,27.56,5.78,8.53,8.27,18.18,9.87,28.03,2.91,17.95,1.71,35.64-6.68,52.12-9.63,18.94-25.56,29.68-46.57,30.81-21.93,1.18-43.96.51-65.95.62-.64,0-1.28-.25-2.72-.56Z"/>
      <path class="cls-1" d="M308.71,916.04c-.58,23.11-6.22,44.42-25.12,59.55-11.5,9.21-24.78,14.25-40.25,12.97-11.62-.96-22.69-2.78-33.08-8.33-8.88-4.74-14.83-11.19-14.65-21.87.11-6.49.03-13,.54-19.46.18-2.26,1.36-5.44,3.05-6.29,1.43-.72,4.59.84,6.4,2.18,10.4,7.7,21.11,14.08,34.48,15.74,18.57,2.3,34.76-9.63,31.4-34.67-1.17-8.72-6.55-14.97-13.21-19.84-7.5-5.49-15.47-10.39-23.49-15.13-34.12-20.16-40.71-54.59-34.03-85.97,3.04-14.31,9.35-26.6,21.04-35.8,18.78-14.77,52.75-14.61,71.02.72,2.47,2.07,4.89,5.64,5.1,8.67.63,8.93.54,17.96-.05,26.89-.38,5.81-3,6.37-8.08,3.22-6.48-4.02-12.89-8.47-19.92-11.21-9.8-3.82-20.04-4.4-28.59,3.54-8.15,7.56-9.83,24.12-2.6,33.69,4.3,5.7,10.2,10.37,15.98,14.72,5.83,4.39,12.33,7.89,18.63,11.63,24.69,14.66,35.73,36.73,35.43,65.04Z"/>
      <path class="cls-1" d="M399.82,790.85c0,4.29,0,7.77,0,11.25-.02,56.81-.04,113.62-.07,170.43,0,10.07-2.29,12.64-12.34,13.04-5.08.2-10.21.1-15.26-.43-5.49-.58-7.9-3.71-7.91-9.32,0-57.81,0-115.62.01-173.43q0-11.5-11.57-11.5c-10,0-19.99-.15-29.99,0-3.03.05-4.73-1.05-5.45-3.85-2.6-10.19-2.26-20.42-.13-30.62.61-2.92,2.56-4.22,5.83-4.21,39.32.09,78.64.11,117.96,0,3.74-.01,6.05,1.47,6.2,4.89.39,9.26.62,18.54.32,27.79-.14,4.58-3.49,6.21-8.06,6.12-11.16-.22-22.32-.12-33.49-.15-1.8,0-3.6,0-6.07,0Z"/>
      <path class="cls-2" d="M273.47,443.38c0-4.81,0-9.45,0-14.09,0-26.98-.02-53.96,0-80.94,0-9.44.13-18.88.06-28.32-.02-2.65.65-3.97,3.63-3.91,16.33.32,32.72-.3,48.98.91,29.7,2.21,46.61,20.45,49.69,50.86,1.41,13.96.06,27.68-4.78,40.83-7.43,20.21-21.53,33.06-43.45,34.43-17.71,1.11-35.55.22-54.13.22Z"/>
    </g>
  </g>
</svg>