<svg width="209" height="48" viewBox="0 0 209 48" fill="none" xmlns="http://www.w3.org/2000/svg">
<path d="M186.797 47.2023V12.812H193.54V17.8694H193.877C194.551 16.5208 195.72 15.2845 197.383 14.1607C199.092 13.0368 201.07 12.4749 203.317 12.4749H208.038V19.2181H203.317C200.575 19.2181 198.305 20.0947 196.507 21.8479C194.754 23.5562 193.877 25.8264 193.877 28.6585V47.2023H186.797Z" fill="black"/>
<path d="M161.55 47.8766C158.179 47.8766 155.122 47.1124 152.38 45.5839C149.682 44.0555 147.569 41.9426 146.041 39.2453C144.513 36.5031 143.748 33.4237 143.748 30.0072C143.748 26.5906 144.513 23.5337 146.041 20.8364C147.569 18.0942 149.682 15.9589 152.38 14.4304C155.122 12.902 158.179 12.1377 161.55 12.1377C164.922 12.1377 167.956 12.902 170.654 14.4304C173.396 15.9589 175.531 18.0942 177.06 20.8364C178.588 23.5337 179.352 26.5906 179.352 30.0072C179.352 33.4237 178.588 36.5031 177.06 39.2453C175.531 41.9426 173.396 44.0555 170.654 45.5839C167.956 47.1124 164.922 47.8766 161.55 47.8766ZM161.55 41.4706C164.742 41.4706 167.26 40.4366 169.103 38.3687C170.991 36.3008 171.935 33.5136 171.935 30.0072C171.935 26.5007 170.991 23.7135 169.103 21.6456C167.26 19.5777 164.742 18.5438 161.55 18.5438C158.359 18.5438 155.819 19.5777 153.93 21.6456C152.087 23.7135 151.166 26.5007 151.166 30.0072C151.166 33.5136 152.087 36.3008 153.93 38.3687C155.819 40.4366 158.359 41.4706 161.55 41.4706Z" fill="black"/>
<path d="M130.301 19.2181V40.7963H141.091V47.2023H123.221V19.2181H115.804V12.812H123.221V4.38307H130.301V12.812H139.068V19.2181H130.301Z" fill="black"/>
<path d="M98.0659 47.8766C94.8292 47.8766 92.042 47.3821 89.7043 46.3931C87.4117 45.3591 85.6584 43.988 84.4447 42.2798C83.2758 40.5265 82.6465 38.571 82.5566 36.4132H89.9741C90.3787 39.7848 93.0759 41.4706 98.0659 41.4706C100.763 41.4706 102.696 41.0885 103.865 40.3242C105.079 39.56 105.686 38.5935 105.686 37.4247C105.686 36.1659 105.034 35.2668 103.73 34.7274C102.426 34.143 100.359 33.5361 97.5264 32.9067C94.6493 32.2774 92.2892 31.648 90.4461 31.0186C88.6479 30.3443 87.0745 29.2879 85.7259 27.8493C84.4222 26.4108 83.7703 24.4778 83.7703 22.0502C83.7703 20.297 84.3098 18.6786 85.3887 17.1951C86.4676 15.6667 88.041 14.4529 90.1089 13.5538C92.2218 12.6098 94.7392 12.1377 97.6613 12.1377C100.853 12.1377 103.55 12.6997 105.753 13.8235C108.001 14.9024 109.664 16.2736 110.743 17.9369C111.867 19.6002 112.429 21.2635 112.429 22.9268H105.011C104.832 21.5332 104.18 20.4543 103.056 19.6901C101.977 18.9259 100.156 18.5438 97.5939 18.5438C95.3012 18.5438 93.6603 18.9034 92.6713 19.6227C91.6823 20.297 91.1878 21.1961 91.1878 22.3199C91.1878 23.5787 91.8397 24.5002 93.1434 25.0846C94.447 25.6241 96.5149 26.1635 99.3471 26.703C102.224 27.2874 104.562 27.9168 106.36 28.5911C108.203 29.2205 109.777 30.2544 111.08 31.693C112.429 33.0865 113.103 34.9971 113.103 37.4247C113.103 39.3577 112.541 41.1109 111.417 42.6843C110.294 44.2578 108.608 45.5165 106.36 46.4605C104.112 47.4046 101.348 47.8766 98.0659 47.8766Z" fill="black"/>
<path d="M77.8111 32.3673H49.7594C50.209 35.1545 51.3553 37.3797 53.1984 39.043C55.0865 40.6614 57.4017 41.4706 60.1439 41.4706C64.5944 41.4706 67.7412 39.6724 69.5844 36.076H77.0019C76.3725 38.099 75.3161 40.0095 73.8326 41.8077C72.3491 43.6059 70.4385 45.0669 68.1009 46.1908C65.8082 47.3147 63.1559 47.8766 60.1439 47.8766C56.8173 47.8766 53.7828 47.0899 51.0406 45.5165C48.2984 43.9431 46.1181 41.8077 44.4997 39.1105C42.9263 36.3682 42.1396 33.3338 42.1396 30.0072C42.1396 26.6805 42.9263 23.6686 44.4997 20.9713C46.1181 18.2291 48.2984 16.0713 51.0406 14.4978C53.7828 12.9244 56.8173 12.1377 60.1439 12.1377C63.4256 12.1377 66.3926 12.902 69.0449 14.4304C71.7422 15.9589 73.8775 18.1392 75.4509 20.9713C77.0243 23.7585 77.8111 26.9952 77.8111 30.6815V32.3673ZM60.1439 18.5438C57.5815 18.5438 55.3787 19.2855 53.5356 20.769C51.7374 22.2075 50.5461 24.1631 49.9617 26.6356H70.3935C69.8091 24.253 68.6178 22.3199 66.8197 20.8364C65.0215 19.308 62.7962 18.5438 60.1439 18.5438Z" fill="#F36D63"/>
<path d="M28.9957 22.3874C31.4232 23.0617 33.3787 24.4103 34.8623 26.4333C36.3458 28.4113 37.0875 30.8388 37.0875 33.7159C37.0875 36.4132 36.3907 38.7733 34.9971 40.7963C33.6485 42.8192 31.693 44.3926 29.1305 45.5165C26.6131 46.6403 23.6461 47.2023 20.2295 47.2023H0V0H20.5667C23.5337 0 26.1411 0.516977 28.3888 1.55093C30.6365 2.58489 32.3673 4.02343 33.581 5.86657C34.7948 7.66475 35.4017 9.75514 35.4017 12.1377C35.4017 14.5203 34.8173 16.5658 33.6485 18.274C32.5246 19.9373 30.9737 21.1961 28.9957 22.0502V22.3874ZM7.75466 7.08034V19.4204H20.2295C22.4773 19.4204 24.208 18.8584 25.4218 17.7346C26.6805 16.6107 27.3099 15.1047 27.3099 13.2166C27.3099 11.3285 26.6805 9.84505 25.4218 8.76614C24.208 7.64227 22.4773 7.08034 20.2295 7.08034H7.75466ZM20.2295 40.1219C23.0167 40.1219 25.1745 39.515 26.703 38.3013C28.2315 37.0875 28.9957 35.3568 28.9957 33.109C28.9957 30.8163 28.2315 29.0856 26.703 27.9168C25.2195 26.748 23.0617 26.1635 20.2295 26.1635H7.75466V40.1219H20.2295Z" fill="#F36D63"/>
</svg>
